<?xml version="1.0" encoding="UTF-8" standalone="no"?>
<!-- Created with Inkscape (http://www.inkscape.org/) -->

<svg
   xmlns:dc="http://purl.org/dc/elements/1.1/"
   xmlns:cc="http://creativecommons.org/ns#"
   xmlns:rdf="http://www.w3.org/1999/02/22-rdf-syntax-ns#"
   xmlns:svg="http://www.w3.org/2000/svg"
   xmlns="http://www.w3.org/2000/svg"
   xmlns:sodipodi="http://sodipodi.sourceforge.net/DTD/sodipodi-0.dtd"
   xmlns:inkscape="http://www.inkscape.org/namespaces/inkscape"
   width="744.09448819"
   height="1052.3622047"
   id="svg2"
   version="1.1"
   inkscape:version="0.48.2 r9819"
   sodipodi:docname="New document 1">
  <defs
     id="defs4" />
  <sodipodi:namedview
     id="base"
     pagecolor="#ffffff"
     bordercolor="#666666"
     borderopacity="1.0"
     inkscape:pageopacity="0.0"
     inkscape:pageshadow="2"
     inkscape:zoom="1.35"
     inkscape:cx="325.87758"
     inkscape:cy="608.88889"
     inkscape:document-units="px"
     inkscape:current-layer="layer1"
     showgrid="false"
     inkscape:window-width="1305"
     inkscape:window-height="880"
     inkscape:window-x="0"
     inkscape:window-y="0"
     inkscape:window-maximized="0" />
  <metadata
     id="metadata7">
    <rdf:RDF>
      <cc:Work
         rdf:about="">
        <dc:format>image/svg+xml</dc:format>
        <dc:type
           rdf:resource="http://purl.org/dc/dcmitype/StillImage" />
        <dc:title></dc:title>
      </cc:Work>
    </rdf:RDF>
  </metadata>
  <g
     inkscape:label="Layer 1"
     inkscape:groupmode="layer"
     id="layer1">
    <rect
       style="fill:#f2f2f2;fill-opacity:1;stroke:none"
       id="rect3881"
       width="537.77777"
       height="48.888897"
       x="20"
       y="456.06589"
       rx="3.1429769e-11"
       ry="0" />
    <rect
       ry="0"
       rx="3.1429769e-11"
       y="504.43625"
       x="20"
       height="52.592602"
       width="537.77777"
       id="rect3886"
       style="fill:#ececec;fill-opacity:1;stroke:none" />
    <rect
       style="fill:#e6e6e6;fill-opacity:1;stroke:none"
       id="rect3888"
       width="537.77777"
       height="42.962971"
       x="20"
       y="556.43628"
       rx="3.1429769e-11"
       ry="0" />
    <rect
       ry="0"
       rx="3.1429036e-11"
       y="598.43628"
       x="20"
       height="42.962971"
       width="537.7652"
       id="rect3890"
       style="fill:#cccccc;fill-opacity:1;stroke:none" />
    <g
       id="g3908"
       transform="translate(112.59259,1.4814833)">
      <path
         style="fill:#666666;fill-opacity:1;stroke:#2b304a;stroke-width:1px;stroke-linecap:butt;stroke-linejoin:miter;stroke-opacity:0.62666668"
         d="M 333.9149,532.91537 238.59575,475.8941"
         id="path3871"
         inkscape:connector-curvature="0"
         sodipodi:nodetypes="cc" />
      <path
         sodipodi:nodetypes="cc"
         inkscape:connector-curvature="0"
         id="path3873"
         d="m 135.10639,534.6175 97.53192,-58.7234"
         style="fill:#666666;fill-opacity:1;stroke:#2b304a;stroke-width:1px;stroke-linecap:butt;stroke-linejoin:miter;stroke-opacity:0.62666668" />
      <path
         sodipodi:nodetypes="cc"
         inkscape:connector-curvature="0"
         id="path3765"
         d="m 340.93617,614.91537 42.5532,-39.14894"
         style="fill:#666666;fill-opacity:1;stroke:#2b304a;stroke-width:1px;stroke-linecap:butt;stroke-linejoin:miter;stroke-opacity:0.62666668" />
      <path
         style="fill:#666666;fill-opacity:1;stroke:#2b304a;stroke-width:1px;stroke-linecap:butt;stroke-linejoin:miter;stroke-opacity:0.62666668"
         d="M 400.93617,614.91537 384.76596,575.3409"
         id="path3763"
         inkscape:connector-curvature="0"
         sodipodi:nodetypes="cc" />
      <path
         sodipodi:nodetypes="cc"
         inkscape:connector-curvature="0"
         id="path3761"
         d="M 419.14894,614.91537 385.95745,574.48984"
         style="fill:#666666;fill-opacity:1;stroke:#2b304a;stroke-width:1px;stroke-linecap:butt;stroke-linejoin:miter;stroke-opacity:0.62666668" />
      <path
         transform="matrix(1.3181818,0,0,1.3181818,24.088976,-21.51563)"
         d="m 306.38297,485.55368 c 0,2.58516 -2.09569,4.68085 -4.68085,4.68085 -2.58516,0 -4.68085,-2.09569 -4.68085,-4.68085 0,-2.58516 2.09569,-4.68085 4.68085,-4.68085 2.58516,0 4.68085,2.09569 4.68085,4.68085 z"
         sodipodi:ry="4.680851"
         sodipodi:rx="4.680851"
         sodipodi:cy="485.55368"
         sodipodi:cx="301.70212"
         id="path2987"
         style="fill:#666666;fill-opacity:1;stroke:none"
         sodipodi:type="arc" />
      <path
         sodipodi:type="arc"
         style="fill:#666666;fill-opacity:1;stroke:none"
         id="path3757"
         sodipodi:cx="301.70212"
         sodipodi:cy="485.55368"
         sodipodi:rx="4.680851"
         sodipodi:ry="4.680851"
         d="m 306.38297,485.55368 c 0,2.58516 -2.09569,4.68085 -4.68085,4.68085 -2.58516,0 -4.68085,-2.09569 -4.68085,-4.68085 0,-2.58516 2.09569,-4.68085 4.68085,-4.68085 2.58516,0 4.68085,2.09569 4.68085,4.68085 z"
         transform="matrix(1.3181818,0,0,1.3181818,4.088976,-21.51563)" />
      <path
         transform="matrix(1.3181818,0,0,1.3181818,-57.911023,-21.51563)"
         d="m 306.38297,485.55368 c 0,2.58516 -2.09569,4.68085 -4.68085,4.68085 -2.58516,0 -4.68085,-2.09569 -4.68085,-4.68085 0,-2.58516 2.09569,-4.68085 4.68085,-4.68085 2.58516,0 4.68085,2.09569 4.68085,4.68085 z"
         sodipodi:ry="4.680851"
         sodipodi:rx="4.680851"
         sodipodi:cy="485.55368"
         sodipodi:cx="301.70212"
         id="path3759"
         style="fill:#666666;fill-opacity:1;stroke:none"
         sodipodi:type="arc" />
      <path
         sodipodi:nodetypes="cc"
         inkscape:connector-curvature="0"
         id="path3773"
         d="m 363.06383,616.19197 19.14894,-37.02128"
         style="fill:#666666;fill-opacity:1;stroke:#2b304a;stroke-width:1px;stroke-linecap:butt;stroke-linejoin:miter;stroke-opacity:0.62666668" />
      <path
         style="fill:#666666;fill-opacity:1;stroke:#2b304a;stroke-width:1px;stroke-linecap:butt;stroke-linejoin:miter;stroke-opacity:0.62666668"
         d="m 381.78723,617.8941 2.12767,-39.57447"
         id="path3775"
         inkscape:connector-curvature="0"
         sodipodi:nodetypes="cc" />
      <path
         transform="matrix(1.3181818,0,0,1.3181818,-15.911024,-21.51563)"
         d="m 306.38297,485.55368 c 0,2.58516 -2.09569,4.68085 -4.68085,4.68085 -2.58516,0 -4.68085,-2.09569 -4.68085,-4.68085 0,-2.58516 2.09569,-4.68085 4.68085,-4.68085 2.58516,0 4.68085,2.09569 4.68085,4.68085 z"
         sodipodi:ry="4.680851"
         sodipodi:rx="4.680851"
         sodipodi:cy="485.55368"
         sodipodi:cx="301.70212"
         id="path3769"
         style="fill:#666666;fill-opacity:1;stroke:none"
         sodipodi:type="arc" />
      <path
         sodipodi:type="arc"
         style="fill:#666666;fill-opacity:1;stroke:none"
         id="path3771"
         sodipodi:cx="301.70212"
         sodipodi:cy="485.55368"
         sodipodi:rx="4.680851"
         sodipodi:ry="4.680851"
         d="m 306.38297,485.55368 c 0,2.58516 -2.09569,4.68085 -4.68085,4.68085 -2.58516,0 -4.68085,-2.09569 -4.68085,-4.68085 0,-2.58516 2.09569,-4.68085 4.68085,-4.68085 2.58516,0 4.68085,2.09569 4.68085,4.68085 z"
         transform="matrix(1.3181818,0,0,1.3181818,-35.911023,-21.51563)" />
      <path
         style="fill:#666666;fill-opacity:1;stroke:#2b304a;stroke-width:1px;stroke-linecap:butt;stroke-linejoin:miter;stroke-opacity:0.62666668"
         d="m 240.93617,614.91537 42.5532,-39.14894"
         id="path3777"
         inkscape:connector-curvature="0"
         sodipodi:nodetypes="cc" />
      <path
         sodipodi:nodetypes="cc"
         inkscape:connector-curvature="0"
         id="path3779"
         d="M 300.93617,614.91537 284.76596,575.3409"
         style="fill:#666666;fill-opacity:1;stroke:#2b304a;stroke-width:1px;stroke-linecap:butt;stroke-linejoin:miter;stroke-opacity:0.62666668" />
      <path
         style="fill:#666666;fill-opacity:1;stroke:#2b304a;stroke-width:1px;stroke-linecap:butt;stroke-linejoin:miter;stroke-opacity:0.62666668"
         d="M 319.14894,614.91537 285.95745,574.48984"
         id="path3781"
         inkscape:connector-curvature="0"
         sodipodi:nodetypes="cc" />
      <path
         sodipodi:type="arc"
         style="fill:#666666;fill-opacity:1;stroke:none"
         id="path3783"
         sodipodi:cx="301.70212"
         sodipodi:cy="485.55368"
         sodipodi:rx="4.680851"
         sodipodi:ry="4.680851"
         d="m 306.38297,485.55368 c 0,2.58516 -2.09569,4.68085 -4.68085,4.68085 -2.58516,0 -4.68085,-2.09569 -4.68085,-4.68085 0,-2.58516 2.09569,-4.68085 4.68085,-4.68085 2.58516,0 4.68085,2.09569 4.68085,4.68085 z"
         transform="matrix(1.3181818,0,0,1.3181818,-75.91102,-21.51563)" />
      <path
         transform="matrix(1.3181818,0,0,1.3181818,-95.91102,-21.51563)"
         d="m 306.38297,485.55368 c 0,2.58516 -2.09569,4.68085 -4.68085,4.68085 -2.58516,0 -4.68085,-2.09569 -4.68085,-4.68085 0,-2.58516 2.09569,-4.68085 4.68085,-4.68085 2.58516,0 4.68085,2.09569 4.68085,4.68085 z"
         sodipodi:ry="4.680851"
         sodipodi:rx="4.680851"
         sodipodi:cy="485.55368"
         sodipodi:cx="301.70212"
         id="path3785"
         style="fill:#666666;fill-opacity:1;stroke:none"
         sodipodi:type="arc" />
      <path
         sodipodi:type="arc"
         style="fill:#666666;fill-opacity:1;stroke:none"
         id="path3787"
         sodipodi:cx="301.70212"
         sodipodi:cy="485.55368"
         sodipodi:rx="4.680851"
         sodipodi:ry="4.680851"
         d="m 306.38297,485.55368 c 0,2.58516 -2.09569,4.68085 -4.68085,4.68085 -2.58516,0 -4.68085,-2.09569 -4.68085,-4.68085 0,-2.58516 2.09569,-4.68085 4.68085,-4.68085 2.58516,0 4.68085,2.09569 4.68085,4.68085 z"
         transform="matrix(1.3181818,0,0,1.3181818,-157.91102,-21.51563)" />
      <path
         style="fill:#666666;fill-opacity:1;stroke:#2b304a;stroke-width:1px;stroke-linecap:butt;stroke-linejoin:miter;stroke-opacity:0.62666668"
         d="m 263.06383,616.19197 19.14894,-37.02128"
         id="path3789"
         inkscape:connector-curvature="0"
         sodipodi:nodetypes="cc" />
      <path
         sodipodi:nodetypes="cc"
         inkscape:connector-curvature="0"
         id="path3791"
         d="m 281.78723,617.8941 2.12767,-39.57447"
         style="fill:#666666;fill-opacity:1;stroke:#2b304a;stroke-width:1px;stroke-linecap:butt;stroke-linejoin:miter;stroke-opacity:0.62666668" />
      <path
         sodipodi:type="arc"
         style="fill:#666666;fill-opacity:1;stroke:none"
         id="path3795"
         sodipodi:cx="301.70212"
         sodipodi:cy="485.55368"
         sodipodi:rx="4.680851"
         sodipodi:ry="4.680851"
         d="m 306.38297,485.55368 c 0,2.58516 -2.09569,4.68085 -4.68085,4.68085 -2.58516,0 -4.68085,-2.09569 -4.68085,-4.68085 0,-2.58516 2.09569,-4.68085 4.68085,-4.68085 2.58516,0 4.68085,2.09569 4.68085,4.68085 z"
         transform="matrix(1.3181818,0,0,1.3181818,-115.91102,-21.51563)" />
      <path
         transform="matrix(1.3181818,0,0,1.3181818,-135.91102,-21.51563)"
         d="m 306.38297,485.55368 c 0,2.58516 -2.09569,4.68085 -4.68085,4.68085 -2.58516,0 -4.68085,-2.09569 -4.68085,-4.68085 0,-2.58516 2.09569,-4.68085 4.68085,-4.68085 2.58516,0 4.68085,2.09569 4.68085,4.68085 z"
         sodipodi:ry="4.680851"
         sodipodi:rx="4.680851"
         sodipodi:cy="485.55368"
         sodipodi:cx="301.70212"
         id="path3797"
         style="fill:#666666;fill-opacity:1;stroke:none"
         sodipodi:type="arc" />
      <text
         sodipodi:linespacing="125%"
         id="text3799"
         y="575.76642"
         x="322.12766"
         style="font-size:40px;font-style:normal;font-weight:normal;line-height:125%;letter-spacing:0px;word-spacing:0px;fill:#666666;fill-opacity:1;stroke:none;font-family:Times New Roman;-inkscape-font-specification:Times New Roman"
         xml:space="preserve"><tspan
           y="575.76642"
           x="322.12766"
           id="tspan3801"
           sodipodi:role="line">...</tspan></text>
      <path
         style="fill:#666666;fill-opacity:1;stroke:#2b304a;stroke-width:1px;stroke-linecap:butt;stroke-linejoin:miter;stroke-opacity:0.62666668"
         d="M 381.14894,572.91537 338.59575,535.8941"
         id="path3803"
         inkscape:connector-curvature="0"
         sodipodi:nodetypes="cc" />
      <path
         sodipodi:nodetypes="cc"
         inkscape:connector-curvature="0"
         id="path3807"
         d="m 287.10639,574.6175 45.53192,-38.7234"
         style="fill:#666666;fill-opacity:1;stroke:#2b304a;stroke-width:1px;stroke-linecap:butt;stroke-linejoin:miter;stroke-opacity:0.62666668" />
      <path
         transform="matrix(1.3181818,0,0,1.3181818,-61.78336,-105.64329)"
         d="m 306.38297,485.55368 c 0,2.58516 -2.09569,4.68085 -4.68085,4.68085 -2.58516,0 -4.68085,-2.09569 -4.68085,-4.68085 0,-2.58516 2.09569,-4.68085 4.68085,-4.68085 2.58516,0 4.68085,2.09569 4.68085,4.68085 z"
         sodipodi:ry="4.680851"
         sodipodi:rx="4.680851"
         sodipodi:cy="485.55368"
         sodipodi:cx="301.70212"
         id="path3805"
         style="fill:#666666;fill-opacity:1;stroke:none"
         sodipodi:type="arc" />
      <path
         sodipodi:type="arc"
         style="fill:#666666;fill-opacity:1;stroke:none"
         id="path3767"
         sodipodi:cx="301.70212"
         sodipodi:cy="485.55368"
         sodipodi:rx="4.680851"
         sodipodi:ry="4.680851"
         d="m 306.38297,485.55368 c 0,2.58516 -2.09569,4.68085 -4.68085,4.68085 -2.58516,0 -4.68085,-2.09569 -4.68085,-4.68085 0,-2.58516 2.09569,-4.68085 4.68085,-4.68085 2.58516,0 4.68085,2.09569 4.68085,4.68085 z"
         transform="matrix(1.3181818,0,0,1.3181818,-13.783364,-63.64329)" />
      <path
         transform="matrix(1.3181818,0,0,1.3181818,-113.78336,-63.64329)"
         d="m 306.38297,485.55368 c 0,2.58516 -2.09569,4.68085 -4.68085,4.68085 -2.58516,0 -4.68085,-2.09569 -4.68085,-4.68085 0,-2.58516 2.09569,-4.68085 4.68085,-4.68085 2.58516,0 4.68085,2.09569 4.68085,4.68085 z"
         sodipodi:ry="4.680851"
         sodipodi:rx="4.680851"
         sodipodi:cy="485.55368"
         sodipodi:cx="301.70212"
         id="path3793"
         style="fill:#666666;fill-opacity:1;stroke:none"
         sodipodi:type="arc" />
      <text
         xml:space="preserve"
         style="font-size:40px;font-style:normal;font-weight:normal;line-height:125%;letter-spacing:0px;word-spacing:0px;fill:#666666;fill-opacity:1;stroke:none;font-family:Times New Roman;-inkscape-font-specification:Times New Roman"
         x="238.0851"
         y="533.21326"
         id="text3809"
         sodipodi:linespacing="125%"><tspan
           sodipodi:role="line"
           id="tspan3811"
           x="238.0851"
           y="533.21326">...</tspan></text>
      <path
         style="fill:#666666;fill-opacity:1;stroke:#2b304a;stroke-width:1px;stroke-linecap:butt;stroke-linejoin:miter;stroke-opacity:0.62666668"
         d="m 140.93617,614.91537 42.5532,-39.14894"
         id="path3813"
         inkscape:connector-curvature="0"
         sodipodi:nodetypes="cc" />
      <path
         sodipodi:nodetypes="cc"
         inkscape:connector-curvature="0"
         id="path3815"
         d="M 200.93617,614.91537 184.76596,575.3409"
         style="fill:#666666;fill-opacity:1;stroke:#2b304a;stroke-width:1px;stroke-linecap:butt;stroke-linejoin:miter;stroke-opacity:0.62666668" />
      <path
         style="fill:#666666;fill-opacity:1;stroke:#2b304a;stroke-width:1px;stroke-linecap:butt;stroke-linejoin:miter;stroke-opacity:0.62666668"
         d="M 219.14894,614.91537 185.95745,574.48984"
         id="path3817"
         inkscape:connector-curvature="0"
         sodipodi:nodetypes="cc" />
      <path
         sodipodi:type="arc"
         style="fill:#666666;fill-opacity:1;stroke:none"
         id="path3819"
         sodipodi:cx="301.70212"
         sodipodi:cy="485.55368"
         sodipodi:rx="4.680851"
         sodipodi:ry="4.680851"
         d="m 306.38297,485.55368 c 0,2.58516 -2.09569,4.68085 -4.68085,4.68085 -2.58516,0 -4.68085,-2.09569 -4.68085,-4.68085 0,-2.58516 2.09569,-4.68085 4.68085,-4.68085 2.58516,0 4.68085,2.09569 4.68085,4.68085 z"
         transform="matrix(1.3181818,0,0,1.3181818,-175.91102,-21.51563)" />
      <path
         transform="matrix(1.3181818,0,0,1.3181818,-195.91102,-21.51563)"
         d="m 306.38297,485.55368 c 0,2.58516 -2.09569,4.68085 -4.68085,4.68085 -2.58516,0 -4.68085,-2.09569 -4.68085,-4.68085 0,-2.58516 2.09569,-4.68085 4.68085,-4.68085 2.58516,0 4.68085,2.09569 4.68085,4.68085 z"
         sodipodi:ry="4.680851"
         sodipodi:rx="4.680851"
         sodipodi:cy="485.55368"
         sodipodi:cx="301.70212"
         id="path3821"
         style="fill:#666666;fill-opacity:1;stroke:none"
         sodipodi:type="arc" />
      <path
         sodipodi:type="arc"
         style="fill:#666666;fill-opacity:1;stroke:none"
         id="path3823"
         sodipodi:cx="301.70212"
         sodipodi:cy="485.55368"
         sodipodi:rx="4.680851"
         sodipodi:ry="4.680851"
         d="m 306.38297,485.55368 c 0,2.58516 -2.09569,4.68085 -4.68085,4.68085 -2.58516,0 -4.68085,-2.09569 -4.68085,-4.68085 0,-2.58516 2.09569,-4.68085 4.68085,-4.68085 2.58516,0 4.68085,2.09569 4.68085,4.68085 z"
         transform="matrix(1.3181818,0,0,1.3181818,-257.91102,-21.51563)" />
      <path
         style="fill:#666666;fill-opacity:1;stroke:#2b304a;stroke-width:1px;stroke-linecap:butt;stroke-linejoin:miter;stroke-opacity:0.62666668"
         d="m 163.06383,616.19197 19.14894,-37.02128"
         id="path3825"
         inkscape:connector-curvature="0"
         sodipodi:nodetypes="cc" />
      <path
         sodipodi:nodetypes="cc"
         inkscape:connector-curvature="0"
         id="path3827"
         d="m 181.78723,617.8941 2.12767,-39.57447"
         style="fill:#666666;fill-opacity:1;stroke:#2b304a;stroke-width:1px;stroke-linecap:butt;stroke-linejoin:miter;stroke-opacity:0.62666668" />
      <path
         sodipodi:type="arc"
         style="fill:#666666;fill-opacity:1;stroke:none"
         id="path3829"
         sodipodi:cx="301.70212"
         sodipodi:cy="485.55368"
         sodipodi:rx="4.680851"
         sodipodi:ry="4.680851"
         d="m 306.38297,485.55368 c 0,2.58516 -2.09569,4.68085 -4.68085,4.68085 -2.58516,0 -4.68085,-2.09569 -4.68085,-4.68085 0,-2.58516 2.09569,-4.68085 4.68085,-4.68085 2.58516,0 4.68085,2.09569 4.68085,4.68085 z"
         transform="matrix(1.3181818,0,0,1.3181818,-215.91102,-21.51563)" />
      <path
         transform="matrix(1.3181818,0,0,1.3181818,-235.91102,-21.51563)"
         d="m 306.38297,485.55368 c 0,2.58516 -2.09569,4.68085 -4.68085,4.68085 -2.58516,0 -4.68085,-2.09569 -4.68085,-4.68085 0,-2.58516 2.09569,-4.68085 4.68085,-4.68085 2.58516,0 4.68085,2.09569 4.68085,4.68085 z"
         sodipodi:ry="4.680851"
         sodipodi:rx="4.680851"
         sodipodi:cy="485.55368"
         sodipodi:cx="301.70212"
         id="path3831"
         style="fill:#666666;fill-opacity:1;stroke:none"
         sodipodi:type="arc" />
      <path
         sodipodi:nodetypes="cc"
         inkscape:connector-curvature="0"
         id="path3833"
         d="m 40.93617,614.91537 42.5532,-39.14894"
         style="fill:#666666;fill-opacity:1;stroke:#2b304a;stroke-width:1px;stroke-linecap:butt;stroke-linejoin:miter;stroke-opacity:0.62666668" />
      <path
         style="fill:#666666;fill-opacity:1;stroke:#2b304a;stroke-width:1px;stroke-linecap:butt;stroke-linejoin:miter;stroke-opacity:0.62666668"
         d="M 100.93617,614.91537 84.76596,575.3409"
         id="path3835"
         inkscape:connector-curvature="0"
         sodipodi:nodetypes="cc" />
      <path
         sodipodi:nodetypes="cc"
         inkscape:connector-curvature="0"
         id="path3837"
         d="M 119.14894,614.91537 85.95745,574.48984"
         style="fill:#666666;fill-opacity:1;stroke:#2b304a;stroke-width:1px;stroke-linecap:butt;stroke-linejoin:miter;stroke-opacity:0.62666668" />
      <path
         transform="matrix(1.3181818,0,0,1.3181818,-275.91102,-21.51563)"
         d="m 306.38297,485.55368 c 0,2.58516 -2.09569,4.68085 -4.68085,4.68085 -2.58516,0 -4.68085,-2.09569 -4.68085,-4.68085 0,-2.58516 2.09569,-4.68085 4.68085,-4.68085 2.58516,0 4.68085,2.09569 4.68085,4.68085 z"
         sodipodi:ry="4.680851"
         sodipodi:rx="4.680851"
         sodipodi:cy="485.55368"
         sodipodi:cx="301.70212"
         id="path3839"
         style="fill:#666666;fill-opacity:1;stroke:none"
         sodipodi:type="arc" />
      <path
         sodipodi:type="arc"
         style="fill:#666666;fill-opacity:1;stroke:none"
         id="path3841"
         sodipodi:cx="301.70212"
         sodipodi:cy="485.55368"
         sodipodi:rx="4.680851"
         sodipodi:ry="4.680851"
         d="m 306.38297,485.55368 c 0,2.58516 -2.09569,4.68085 -4.68085,4.68085 -2.58516,0 -4.68085,-2.09569 -4.68085,-4.68085 0,-2.58516 2.09569,-4.68085 4.68085,-4.68085 2.58516,0 4.68085,2.09569 4.68085,4.68085 z"
         transform="matrix(1.3181818,0,0,1.3181818,-295.91102,-21.51563)" />
      <path
         transform="matrix(1.3181818,0,0,1.3181818,-357.91102,-21.51563)"
         d="m 306.38297,485.55368 c 0,2.58516 -2.09569,4.68085 -4.68085,4.68085 -2.58516,0 -4.68085,-2.09569 -4.68085,-4.68085 0,-2.58516 2.09569,-4.68085 4.68085,-4.68085 2.58516,0 4.68085,2.09569 4.68085,4.68085 z"
         sodipodi:ry="4.680851"
         sodipodi:rx="4.680851"
         sodipodi:cy="485.55368"
         sodipodi:cx="301.70212"
         id="path3843"
         style="fill:#666666;fill-opacity:1;stroke:none"
         sodipodi:type="arc" />
      <path
         sodipodi:nodetypes="cc"
         inkscape:connector-curvature="0"
         id="path3845"
         d="M 63.06383,616.19197 82.21277,579.17069"
         style="fill:#666666;fill-opacity:1;stroke:#2b304a;stroke-width:1px;stroke-linecap:butt;stroke-linejoin:miter;stroke-opacity:0.62666668" />
      <path
         style="fill:#666666;fill-opacity:1;stroke:#2b304a;stroke-width:1px;stroke-linecap:butt;stroke-linejoin:miter;stroke-opacity:0.62666668"
         d="M 81.78723,617.8941 83.9149,578.31963"
         id="path3847"
         inkscape:connector-curvature="0"
         sodipodi:nodetypes="cc" />
      <path
         transform="matrix(1.3181818,0,0,1.3181818,-315.91102,-21.51563)"
         d="m 306.38297,485.55368 c 0,2.58516 -2.09569,4.68085 -4.68085,4.68085 -2.58516,0 -4.68085,-2.09569 -4.68085,-4.68085 0,-2.58516 2.09569,-4.68085 4.68085,-4.68085 2.58516,0 4.68085,2.09569 4.68085,4.68085 z"
         sodipodi:ry="4.680851"
         sodipodi:rx="4.680851"
         sodipodi:cy="485.55368"
         sodipodi:cx="301.70212"
         id="path3849"
         style="fill:#666666;fill-opacity:1;stroke:none"
         sodipodi:type="arc" />
      <path
         sodipodi:type="arc"
         style="fill:#666666;fill-opacity:1;stroke:none"
         id="path3851"
         sodipodi:cx="301.70212"
         sodipodi:cy="485.55368"
         sodipodi:rx="4.680851"
         sodipodi:ry="4.680851"
         d="m 306.38297,485.55368 c 0,2.58516 -2.09569,4.68085 -4.68085,4.68085 -2.58516,0 -4.68085,-2.09569 -4.68085,-4.68085 0,-2.58516 2.09569,-4.68085 4.68085,-4.68085 2.58516,0 4.68085,2.09569 4.68085,4.68085 z"
         transform="matrix(1.3181818,0,0,1.3181818,-335.91102,-21.51563)" />
      <text
         xml:space="preserve"
         style="font-size:40px;font-style:normal;font-weight:normal;line-height:125%;letter-spacing:0px;word-spacing:0px;fill:#666666;fill-opacity:1;stroke:none;font-family:Times New Roman;-inkscape-font-specification:Times New Roman"
         x="122.12766"
         y="575.76642"
         id="text3853"
         sodipodi:linespacing="125%"><tspan
           sodipodi:role="line"
           id="tspan3855"
           x="122.12766"
           y="575.76642">...</tspan></text>
      <path
         sodipodi:nodetypes="cc"
         inkscape:connector-curvature="0"
         id="path3857"
         d="M 181.14894,572.91537 138.59575,535.8941"
         style="fill:#666666;fill-opacity:1;stroke:#2b304a;stroke-width:1px;stroke-linecap:butt;stroke-linejoin:miter;stroke-opacity:0.62666668" />
      <path
         style="fill:#666666;fill-opacity:1;stroke:#2b304a;stroke-width:1px;stroke-linecap:butt;stroke-linejoin:miter;stroke-opacity:0.62666668"
         d="m 87.10639,574.6175 45.53192,-38.7234"
         id="path3859"
         inkscape:connector-curvature="0"
         sodipodi:nodetypes="cc" />
      <path
         sodipodi:type="arc"
         style="fill:#666666;fill-opacity:1;stroke:none"
         id="path3861"
         sodipodi:cx="301.70212"
         sodipodi:cy="485.55368"
         sodipodi:rx="4.680851"
         sodipodi:ry="4.680851"
         d="m 306.38297,485.55368 c 0,2.58516 -2.09569,4.68085 -4.68085,4.68085 -2.58516,0 -4.68085,-2.09569 -4.68085,-4.68085 0,-2.58516 2.09569,-4.68085 4.68085,-4.68085 2.58516,0 4.68085,2.09569 4.68085,4.68085 z"
         transform="matrix(1.3181818,0,0,1.3181818,-261.78336,-105.64329)" />
      <path
         transform="matrix(1.3181818,0,0,1.3181818,-213.78336,-63.64329)"
         d="m 306.38297,485.55368 c 0,2.58516 -2.09569,4.68085 -4.68085,4.68085 -2.58516,0 -4.68085,-2.09569 -4.68085,-4.68085 0,-2.58516 2.09569,-4.68085 4.68085,-4.68085 2.58516,0 4.68085,2.09569 4.68085,4.68085 z"
         sodipodi:ry="4.680851"
         sodipodi:rx="4.680851"
         sodipodi:cy="485.55368"
         sodipodi:cx="301.70212"
         id="path3863"
         style="fill:#666666;fill-opacity:1;stroke:none"
         sodipodi:type="arc" />
      <path
         sodipodi:type="arc"
         style="fill:#666666;fill-opacity:1;stroke:none"
         id="path3865"
         sodipodi:cx="301.70212"
         sodipodi:cy="485.55368"
         sodipodi:rx="4.680851"
         sodipodi:ry="4.680851"
         d="m 306.38297,485.55368 c 0,2.58516 -2.09569,4.68085 -4.68085,4.68085 -2.58516,0 -4.68085,-2.09569 -4.68085,-4.68085 0,-2.58516 2.09569,-4.68085 4.68085,-4.68085 2.58516,0 4.68085,2.09569 4.68085,4.68085 z"
         transform="matrix(1.3181818,0,0,1.3181818,-313.78336,-63.64329)" />
      <text
         sodipodi:linespacing="125%"
         id="text3867"
         y="533.21326"
         x="208.0851"
         style="font-size:40px;font-style:normal;font-weight:normal;line-height:125%;letter-spacing:0px;word-spacing:0px;fill:#666666;fill-opacity:1;stroke:none;font-family:Times New Roman;-inkscape-font-specification:Times New Roman"
         xml:space="preserve"><tspan
           y="533.21326"
           x="208.0851"
           id="tspan3869"
           sodipodi:role="line">...</tspan></text>
      <path
         transform="matrix(1.3181818,0,0,1.3181818,-161.78336,-165.64329)"
         d="m 306.38297,485.55368 c 0,2.58516 -2.09569,4.68085 -4.68085,4.68085 -2.58516,0 -4.68085,-2.09569 -4.68085,-4.68085 0,-2.58516 2.09569,-4.68085 4.68085,-4.68085 2.58516,0 4.68085,2.09569 4.68085,4.68085 z"
         sodipodi:ry="4.680851"
         sodipodi:rx="4.680851"
         sodipodi:cy="485.55368"
         sodipodi:cx="301.70212"
         id="path3875"
         style="fill:#666666;fill-opacity:1;stroke:none"
         sodipodi:type="arc" />
    </g>
    <text
       xml:space="preserve"
       style="font-size:40px;font-style:normal;font-weight:normal;line-height:125%;letter-spacing:0px;word-spacing:0px;fill:#000000;fill-opacity:1;stroke:none;font-family:Times New Roman;-inkscape-font-specification:Times New Roman"
       x="371.62964"
       y="491.62146"
       id="text3877"
       sodipodi:linespacing="125%"><tspan
         sodipodi:role="line"
         id="tspan3879"
         x="371.62964"
         y="491.62146"
         style="font-style:normal;font-variant:normal;font-weight:normal;font-stretch:normal;fill:#666666;fill-opacity:1;font-family:Optima;-inkscape-font-specification:Optima" /></text>
    <text
       xml:space="preserve"
       style="font-size:40px;font-style:normal;font-weight:normal;line-height:125%;letter-spacing:0px;word-spacing:0px;fill:#000000;fill-opacity:1;stroke:none;font-family:Times New Roman;-inkscape-font-specification:Times New Roman"
       x="27.287418"
       y="486.43625"
       id="text3892"
       sodipodi:linespacing="125%"><tspan
         sodipodi:role="line"
         id="tspan3894"
         x="27.287418"
         y="486.43625"
         style="font-size:30px;font-style:normal;font-variant:normal;font-weight:normal;font-stretch:normal;font-family:Optima;-inkscape-font-specification:Optima">Users</tspan></text>
    <text
       sodipodi:linespacing="125%"
       id="text3896"
       y="534.88074"
       x="27.407413"
       style="font-size:40px;font-style:normal;font-weight:normal;line-height:125%;letter-spacing:0px;word-spacing:0px;fill:#000000;fill-opacity:1;stroke:none;font-family:Times New Roman;-inkscape-font-specification:Times New Roman"
       xml:space="preserve"><tspan
         style="font-size:30px;font-style:normal;font-variant:normal;font-weight:normal;font-stretch:normal;font-family:Optima;-inkscape-font-specification:Optima"
         y="534.88074"
         x="27.407413"
         id="tspan3898"
         sodipodi:role="line">Experiments</tspan></text>
    <text
       xml:space="preserve"
       style="font-size:40px;font-style:normal;font-weight:normal;line-height:125%;letter-spacing:0px;word-spacing:0px;fill:#000000;fill-opacity:1;stroke:none;font-family:Times New Roman;-inkscape-font-specification:Times New Roman"
       x="27.407413"
       y="586.58441"
       id="text3900"
       sodipodi:linespacing="125%"><tspan
         sodipodi:role="line"
         id="tspan3902"
         x="27.407413"
         y="586.58441"
         style="font-size:30px;font-style:normal;font-variant:normal;font-weight:normal;font-stretch:normal;font-family:Optima;-inkscape-font-specification:Optima">Nodes</tspan></text>
    <text
       sodipodi:linespacing="125%"
       id="text3904"
       y="630.28815"
       x="28.75742"
       style="font-size:40px;font-style:normal;font-weight:normal;line-height:125%;letter-spacing:0px;word-spacing:0px;fill:#000000;fill-opacity:1;stroke:none;font-family:Times New Roman;-inkscape-font-specification:Times New Roman"
       xml:space="preserve"><tspan
         style="font-size:30px;font-style:normal;font-variant:normal;font-weight:normal;font-stretch:normal;font-family:Optima;-inkscape-font-specification:Optima"
         y="630.28815"
         x="28.75742"
         id="tspan3906"
         sodipodi:role="line">Streams</tspan></text>
  </g>
</svg>
